<svg xmlns="http://www.w3.org/2000/svg" width="40" height="40" viewBox="0 0 40 40" fill="none">
<path d="M2.13965 35.1085V38.8528C2.13965 39.157 2.26061 39.4488 2.47576 39.664C2.69091 39.8791 2.98274 40 3.28701 40H9.83685C10.1411 40 10.433 39.8791 10.6481 39.664C10.8633 39.4488 10.984 39.157 10.984 38.8528V35.1085H2.13965Z" fill="white"/>
<path d="M6.89593 0.05448C6.71162 -0.01816 6.50656 -0.01816 6.32225 0.05448C2.24426 1.83795 2.15039 7.75154 2.15039 7.75154V31.6771H10.9947V7.75154C10.9947 7.75154 10.9322 1.85881 6.89593 0.05448Z" fill="white"/>
<path d="M15.1562 35.1085V38.8528C15.1563 39.157 15.2772 39.4488 15.4924 39.664C15.7075 39.8791 15.9993 40 16.3036 40H22.8639C23.1673 39.9973 23.4575 39.8756 23.6721 39.661C23.8867 39.4464 24.0083 39.1562 24.011 38.8528V35.1085H15.1562Z" fill="white"/>
<path d="M19.8705 0.05448C19.6862 -0.01816 19.4812 -0.01816 19.2969 0.05448C15.2189 1.83795 15.125 7.75154 15.125 7.75154V31.6771H23.9798V7.75154C23.9798 7.75154 23.9485 1.85881 19.8705 0.05448Z" fill="white"/>
<path d="M28.1719 35.1085V38.8528C28.1719 39.157 28.2928 39.4488 28.508 39.664C28.7231 39.8791 29.015 40 29.3192 40H35.8795C36.1838 40 36.4756 39.8791 36.6908 39.664C36.9059 39.4488 37.0266 39.157 37.0266 38.8528V35.1085H28.1719Z" fill="white"/>
<path d="M32.8869 0.05448C32.7026 -0.01816 32.4978 -0.01816 32.3135 0.05448C28.2355 1.83795 28.1416 7.75154 28.1416 7.75154V31.6771H36.9964V7.75154C36.9964 7.75154 36.9649 1.85881 32.8869 0.05448Z" fill="white"/>
</svg>