<svg xmlns="http://www.w3.org/2000/svg" width="40" height="40" viewBox="0 0 40 40" fill="none">
<path fill-rule="evenodd" clip-rule="evenodd" d="M38.9455 12.7133H27.7087C27.5959 12.7108 27.4886 12.6643 27.4098 12.5836C27.3309 12.503 27.2866 12.3947 27.2866 12.2819V1.05464C27.2866 0.774931 27.1757 0.506677 26.9779 0.308892C26.7801 0.111106 26.5118 0 26.2321 0H13.7681C13.4884 0 13.2201 0.111106 13.0223 0.308892C12.8245 0.506677 12.7133 0.774931 12.7133 1.05464V12.2819C12.7133 12.3963 12.6678 12.506 12.5869 12.5869C12.506 12.6679 12.3964 12.7133 12.2819 12.7133H1.05474C0.775033 12.7133 0.506765 12.8244 0.308979 13.0222C0.111194 13.22 0 13.4883 0 13.768V26.232C0 26.5117 0.111194 26.78 0.308979 26.9778C0.506765 27.1756 0.775033 27.2867 1.05474 27.2867H12.2819C12.3964 27.2867 12.506 27.3321 12.5869 27.413C12.6678 27.4939 12.7133 27.6037 12.7133 27.7181V38.9453C12.7133 39.2251 12.8245 39.4933 13.0223 39.6911C13.2201 39.8889 13.4884 40 13.7681 40H26.2321C26.5118 40 26.7801 39.8889 26.9779 39.6911C27.1757 39.4933 27.2866 39.2251 27.2866 38.9453V27.7373C27.2866 27.6245 27.3309 27.5162 27.4098 27.4356C27.4886 27.3549 27.5959 27.3083 27.7087 27.3058H38.9455C39.2252 27.3058 39.4934 27.1947 39.6912 26.9969C39.889 26.7992 40 26.5309 40 26.2512V13.7871C40.0025 13.647 39.9772 13.5078 39.9253 13.3777C39.8734 13.2475 39.7962 13.1289 39.698 13.029C39.5998 12.929 39.4827 12.8496 39.3535 12.7954C39.2242 12.7412 39.0856 12.7133 38.9455 12.7133Z" fill="white"/>
</svg>