<svg xmlns="http://www.w3.org/2000/svg" width="40" height="40" viewBox="0 0 40 40" fill="none">
<path d="M36.8022 5.87733C36.8922 2.31733 34.0621 1.77733 31.6521 1.17733C27.9633 0.333167 24.1856 -0.0597094 20.4021 0.00733291C16.6186 -0.0597094 12.8409 0.333167 9.1521 1.17733C6.7421 1.77733 3.91219 2.31733 4.00219 5.87733C4.13219 10.7973 4.00219 15.7173 4.00219 20.6373C3.97714 21.4489 4.16692 22.2526 4.55224 22.9673C8.14312 29.5379 13.209 35.1859 19.352 39.4673C19.637 39.6977 19.9864 39.834 20.352 39.8573C20.7177 39.834 21.0671 39.6977 21.352 39.4673C27.4951 35.1859 32.5612 29.5379 36.1521 22.9673C36.5374 22.2526 36.7272 21.4489 36.7021 20.6373C36.7721 15.7173 36.6722 10.7973 36.8022 5.87733Z" fill="white"/>
</svg>